<svg width="75" height="75" viewBox="0 0 75 75" fill="none" xmlns="http://www.w3.org/2000/svg">
<path d="M58.788 28.1213C59.9596 26.9497 59.9596 25.0503 58.788 23.8787C57.6164 22.7071 55.7169 22.7071 54.5453 23.8787L58.788 28.1213ZM29.8333 52.8334L27.7119 54.9547C28.8835 56.1263 30.783 56.1263 31.9546 54.9547L29.8333 52.8334ZM20.4544 39.212C19.2828 38.0404 17.3833 38.0404 16.2118 39.212C15.0402 40.3836 15.0402 42.2831 16.2118 43.4547L20.4544 39.212ZM54.5453 23.8787L27.7119 50.7121L31.9546 54.9547L58.788 28.1213L54.5453 23.8787ZM16.2118 43.4547L27.7119 54.9547L31.9546 50.7121L20.4544 39.212L16.2118 43.4547ZM69 37.5C69 54.897 54.897 69 37.5 69V75C58.2107 75 75 58.2107 75 37.5H69ZM37.5 69C20.103 69 6 54.897 6 37.5H0C0 58.2107 16.7893 75 37.5 75V69ZM6 37.5C6 20.103 20.103 6 37.5 6V0C16.7893 0 0 16.7893 0 37.5H6ZM37.5 6C54.897 6 69 20.103 69 37.5H75C75 16.7893 58.2107 0 37.5 0V6Z" fill="#709129"/>
</svg>
