<svg width="24" height="24" viewBox="0 0 24 24" fill="none" xmlns="http://www.w3.org/2000/svg">
<path d="M16.5304 8.53033C16.8232 8.23744 16.8232 7.76256 16.5304 7.46967C16.2375 7.17678 15.7626 7.17678 15.4697 7.46967L16.5304 8.53033ZM7.46967 15.4697C7.17678 15.7626 7.17678 16.2375 7.46967 16.5304C7.76256 16.8232 8.23744 16.8232 8.53033 16.5304L7.46967 15.4697ZM8.53036 7.46967C8.23746 7.17678 7.76259 7.17678 7.4697 7.46967C7.1768 7.76256 7.1768 8.23744 7.4697 8.53033L8.53036 7.46967ZM15.4697 16.5304C15.7626 16.8232 16.2375 16.8232 16.5304 16.5304C16.8233 16.2375 16.8233 15.7626 16.5304 15.4697L15.4697 16.5304ZM15.4697 7.46967L7.46967 15.4697L8.53033 16.5304L16.5304 8.53033L15.4697 7.46967ZM7.4697 8.53033L15.4697 16.5304L16.5304 15.4697L8.53036 7.46967L7.4697 8.53033Z" fill="#211D28"/>
</svg>
