<svg width="22" height="20" viewBox="0 0 22 20" fill="none" xmlns="http://www.w3.org/2000/svg">
<path d="M21 10L21.6656 10.3457C21.7781 10.129 21.7781 9.871 21.6656 9.65426L21 10ZM1 10L0.334446 9.65426C0.221851 9.871 0.221851 10.129 0.334446 10.3457L1 10ZM8.5702 2.57067C8.17006 2.67774 7.93248 3.08891 8.03955 3.48905C8.14662 3.88919 8.55779 4.12677 8.95793 4.0197L8.5702 2.57067ZM3.8988 7.28846C4.1806 6.98488 4.16294 6.51033 3.85935 6.22854C3.55577 5.94674 3.08122 5.9644 2.79943 6.26799L3.8988 7.28846ZM13.4715 17.4181C13.8712 17.3092 14.1069 16.897 13.9981 16.4973C13.8892 16.0977 13.477 15.8619 13.0773 15.9708L13.4715 17.4181ZM18.0641 12.7513C17.7813 13.0539 17.7973 13.5285 18.0998 13.8114C18.4024 14.0942 18.877 14.0783 19.1599 13.7757L18.0641 12.7513ZM10.3759 13.6982C10.7844 13.7667 11.1711 13.4911 11.2397 13.0826C11.3082 12.6741 11.0326 12.2874 10.6241 12.2189L10.3759 13.6982ZM8.87784 10.7501C8.7398 10.3595 8.31131 10.1548 7.92077 10.2929C7.53023 10.4309 7.32554 10.8594 7.46358 11.2499L8.87784 10.7501ZM11.6241 6.30182C11.2156 6.23328 10.8289 6.50888 10.7603 6.91739C10.6918 7.32589 10.9674 7.71261 11.3759 7.78114L11.6241 6.30182ZM13.2189 9.62409C13.2874 10.0326 13.6741 10.3082 14.0826 10.2397C14.4911 10.1711 14.7667 9.78441 14.6982 9.37591L13.2189 9.62409ZM2.53033 0.46967C2.23744 0.176777 1.76256 0.176777 1.46967 0.46967C1.17678 0.762563 1.17678 1.23744 1.46967 1.53033L2.53033 0.46967ZM19.4697 19.5303C19.7626 19.8232 20.2374 19.8232 20.5303 19.5303C20.8232 19.2374 20.8232 18.7626 20.5303 18.4697L19.4697 19.5303ZM11 3.75C13.8933 3.75 16.2114 5.34195 17.8491 7.02331C18.6621 7.85799 19.2876 8.69521 19.7096 9.32414C19.9201 9.63793 20.0788 9.89806 20.1838 10.0776C20.2362 10.1674 20.2752 10.2369 20.3004 10.2827C20.313 10.3056 20.3221 10.3226 20.3278 10.3333C20.3307 10.3386 20.3327 10.3423 20.3338 10.3444C20.3343 10.3455 20.3346 10.3461 20.3348 10.3463C20.3348 10.3464 20.3348 10.3465 20.3348 10.3464C20.3347 10.3463 20.3347 10.3462 20.3346 10.3461C20.3346 10.3459 20.3344 10.3457 21 10C21.6656 9.65426 21.6654 9.654 21.6653 9.65371C21.6652 9.65358 21.665 9.65327 21.6649 9.653C21.6646 9.65248 21.6643 9.65185 21.6639 9.65111C21.6631 9.64964 21.6621 9.64774 21.6609 9.64542C21.6585 9.64079 21.6551 9.63448 21.6509 9.62656C21.6425 9.61072 21.6304 9.58841 21.6148 9.56006C21.5837 9.50336 21.5383 9.42245 21.4788 9.32079C21.3601 9.11757 21.185 8.83082 20.9552 8.48836C20.4965 7.80479 19.8152 6.89201 18.9236 5.97669C17.1522 4.15805 14.4703 2.25 11 2.25V3.75ZM11 16.25C8.10671 16.25 5.78858 14.658 4.1509 12.9767C3.3379 12.142 2.71241 11.3048 2.2904 10.6759C2.07985 10.3621 1.92116 10.1019 1.81621 9.92236C1.76376 9.83261 1.72482 9.76313 1.69961 9.71728C1.68701 9.69437 1.67786 9.67737 1.67217 9.66672C1.66932 9.6614 1.66735 9.65766 1.66624 9.65557C1.66569 9.65452 1.66536 9.65388 1.66524 9.65366C1.66519 9.65355 1.66518 9.65354 1.66523 9.65364C1.66526 9.65369 1.66534 9.65385 1.66535 9.65387C1.66545 9.65405 1.66555 9.65426 1 10C0.334446 10.3457 0.334581 10.346 0.33473 10.3463C0.334798 10.3464 0.334961 10.3467 0.335098 10.347C0.335371 10.3475 0.335701 10.3482 0.336087 10.3489C0.336859 10.3504 0.337855 10.3523 0.339075 10.3546C0.341516 10.3592 0.344853 10.3655 0.349084 10.3734C0.357544 10.3893 0.369582 10.4116 0.38517 10.4399C0.41634 10.4966 0.461738 10.5775 0.52115 10.6792C0.639918 10.8824 0.815032 11.1692 1.04482 11.5116C1.5035 12.1952 2.18483 13.108 3.07637 14.0233C4.84778 15.842 7.52965 17.75 11 17.75V16.25ZM8.95793 4.0197C9.60045 3.84777 10.2812 3.75 11 3.75V2.25C10.1435 2.25 9.33243 2.36672 8.5702 2.57067L8.95793 4.0197ZM1 10C1.66555 10.3457 1.6655 10.3458 1.66545 10.3459C1.66544 10.346 1.66539 10.3461 1.66536 10.3461C1.66531 10.3462 1.66527 10.3463 1.66524 10.3463C1.66519 10.3464 1.66518 10.3465 1.66523 10.3464C1.66531 10.3462 1.6656 10.3457 1.66608 10.3448C1.66703 10.3429 1.66877 10.3396 1.67129 10.3349C1.67633 10.3255 1.68448 10.3103 1.69572 10.2898C1.7182 10.2488 1.75302 10.1864 1.79997 10.1055C1.89393 9.94367 2.03619 9.70826 2.22516 9.42214C2.60384 8.8488 3.1662 8.07771 3.8988 7.28846L2.79943 6.26799C1.99812 7.13125 1.38593 7.97105 0.973518 8.59547C0.766955 8.90822 0.609546 9.16841 0.502713 9.35245C0.449273 9.4445 0.408418 9.51762 0.380328 9.56888C0.366282 9.59451 0.35542 9.61468 0.347767 9.62903C0.34394 9.6362 0.340915 9.64192 0.338694 9.64614C0.337584 9.64825 0.336674 9.64999 0.335966 9.65134C0.335612 9.65202 0.335308 9.6526 0.335055 9.65309C0.334928 9.65333 0.334814 9.65355 0.334713 9.65374C0.334662 9.65384 0.334595 9.65397 0.33457 9.65402C0.334506 9.65414 0.334446 9.65426 1 10ZM13.0773 15.9708C12.4244 16.1486 11.7319 16.25 11 16.25V17.75C11.8722 17.75 12.6972 17.629 13.4715 17.4181L13.0773 15.9708ZM21 10C20.3344 9.65426 20.3345 9.65415 20.3346 9.65405C20.3346 9.65403 20.3346 9.65394 20.3346 9.65389C20.3347 9.65379 20.3347 9.65371 20.3348 9.65366C20.3348 9.65355 20.3348 9.65355 20.3348 9.65363C20.3347 9.65381 20.3344 9.65436 20.3339 9.65529C20.3329 9.65715 20.3311 9.66051 20.3286 9.66532C20.3234 9.67494 20.3151 9.69037 20.3037 9.71123C20.2808 9.75296 20.2454 9.81639 20.1976 9.89858C20.1021 10.063 19.9574 10.3021 19.7653 10.5923C19.3802 11.1739 18.8086 11.955 18.0641 12.7513L19.1599 13.7757C19.9745 12.9043 20.5968 12.0536 21.016 11.4204C21.226 11.1032 21.386 10.8391 21.4946 10.6522C21.5489 10.5587 21.5904 10.4845 21.619 10.4324C21.6332 10.4064 21.6443 10.3859 21.652 10.3713C21.6559 10.3641 21.659 10.3582 21.6612 10.354C21.6624 10.3518 21.6633 10.3501 21.664 10.3487C21.6644 10.348 21.6647 10.3474 21.6649 10.3469C21.6651 10.3467 21.6652 10.3465 21.6653 10.3463C21.6653 10.3462 21.6654 10.346 21.6654 10.346C21.6655 10.3459 21.6656 10.3457 21 10ZM10.6241 12.2189C9.81306 12.0828 9.14653 11.5103 8.87784 10.7501L7.46358 11.2499C7.91113 12.5162 9.01859 13.4705 10.3759 13.6982L10.6241 12.2189ZM11.3759 7.78114C12.3167 7.93898 13.061 8.68331 13.2189 9.62409L14.6982 9.37591C14.4345 7.80419 13.1958 6.5655 11.6241 6.30182L11.3759 7.78114ZM1.46967 1.53033L19.4697 19.5303L20.5303 18.4697L2.53033 0.46967L1.46967 1.53033Z" fill="#211D28"/>
</svg>
