<svg width="513" height="275" viewBox="0 0 513 275" fill="none" xmlns="http://www.w3.org/2000/svg">
<rect width="513" height="275" rx="8" fill="#214200"/>
<path d="M463.215 228C463.215 240.703 452.87 251 440.108 251C427.346 251 417 240.703 417 228C417 215.297 427.346 205 440.108 205C452.87 205 463.215 215.297 463.215 228Z" fill="#EA001B"/>
<path d="M489 228C489 240.703 478.654 251 465.892 251C453.13 251 442.785 240.703 442.785 228C442.785 215.297 453.13 205 465.892 205C478.654 205 489 215.297 489 228Z" fill="#F79F1A"/>
<path d="M453 247.107C459.162 242.977 463.215 235.968 463.215 228.017C463.215 220.066 459.162 213.058 453 208.927C446.838 213.058 442.785 220.066 442.785 228.017C442.785 235.968 446.838 242.977 453 247.107Z" fill="#FF5F01"/>
<path d="M209.172 67.25H213.141L218.984 83.9531L224.828 67.25H228.797L220.578 90H217.391L209.172 67.25ZM207.031 67.25H210.984L211.703 83.5312V90H207.031V67.25ZM226.984 67.25H230.953V90H226.266V83.5312L226.984 67.25ZM234.062 81.7188V81.3906C234.062 80.151 234.24 79.0104 234.594 77.9688C234.948 76.9167 235.464 76.0052 236.141 75.2344C236.818 74.4635 237.651 73.8646 238.641 73.4375C239.63 73 240.766 72.7812 242.047 72.7812C243.328 72.7812 244.469 73 245.469 73.4375C246.469 73.8646 247.307 74.4635 247.984 75.2344C248.672 76.0052 249.193 76.9167 249.547 77.9688C249.901 79.0104 250.078 80.151 250.078 81.3906V81.7188C250.078 82.9479 249.901 84.0885 249.547 85.1406C249.193 86.1823 248.672 87.0938 247.984 87.875C247.307 88.6458 246.474 89.2448 245.484 89.6719C244.495 90.099 243.359 90.3125 242.078 90.3125C240.797 90.3125 239.656 90.099 238.656 89.6719C237.667 89.2448 236.828 88.6458 236.141 87.875C235.464 87.0938 234.948 86.1823 234.594 85.1406C234.24 84.0885 234.062 82.9479 234.062 81.7188ZM238.562 81.3906V81.7188C238.562 82.4271 238.625 83.0885 238.75 83.7031C238.875 84.3177 239.073 84.8594 239.344 85.3281C239.625 85.7865 239.99 86.1458 240.438 86.4062C240.885 86.6667 241.432 86.7969 242.078 86.7969C242.703 86.7969 243.24 86.6667 243.688 86.4062C244.135 86.1458 244.495 85.7865 244.766 85.3281C245.036 84.8594 245.234 84.3177 245.359 83.7031C245.495 83.0885 245.562 82.4271 245.562 81.7188V81.3906C245.562 80.7031 245.495 80.0573 245.359 79.4531C245.234 78.8385 245.031 78.2969 244.75 77.8281C244.479 77.349 244.12 76.974 243.672 76.7031C243.224 76.4323 242.682 76.2969 242.047 76.2969C241.411 76.2969 240.87 76.4323 240.422 76.7031C239.984 76.974 239.625 77.349 239.344 77.8281C239.073 78.2969 238.875 78.8385 238.75 79.4531C238.625 80.0573 238.562 80.7031 238.562 81.3906ZM271.156 78.1094V87.125C270.802 87.5521 270.255 88.0156 269.516 88.5156C268.776 89.0052 267.823 89.4271 266.656 89.7812C265.49 90.1354 264.078 90.3125 262.422 90.3125C260.953 90.3125 259.615 90.0729 258.406 89.5938C257.198 89.1042 256.156 88.3906 255.281 87.4531C254.417 86.5156 253.75 85.3698 253.281 84.0156C252.812 82.651 252.578 81.0938 252.578 79.3438V77.9219C252.578 76.1719 252.802 74.6146 253.25 73.25C253.708 71.8854 254.359 70.7344 255.203 69.7969C256.047 68.8594 257.052 68.1458 258.219 67.6562C259.385 67.1667 260.682 66.9219 262.109 66.9219C264.089 66.9219 265.714 67.2448 266.984 67.8906C268.255 68.526 269.224 69.4115 269.891 70.5469C270.568 71.6719 270.984 72.9635 271.141 74.4219H266.594C266.479 73.651 266.26 72.9792 265.938 72.4062C265.615 71.8333 265.151 71.3854 264.547 71.0625C263.953 70.7396 263.182 70.5781 262.234 70.5781C261.453 70.5781 260.755 70.7396 260.141 71.0625C259.536 71.375 259.026 71.8385 258.609 72.4531C258.193 73.0677 257.875 73.8281 257.656 74.7344C257.438 75.6406 257.328 76.6927 257.328 77.8906V79.3438C257.328 80.5312 257.443 81.5833 257.672 82.5C257.901 83.4062 258.24 84.1719 258.688 84.7969C259.146 85.4115 259.708 85.875 260.375 86.1875C261.042 86.5 261.818 86.6562 262.703 86.6562C263.443 86.6562 264.057 86.5938 264.547 86.4688C265.047 86.3438 265.448 86.1927 265.75 86.0156C266.062 85.8281 266.302 85.651 266.469 85.4844V81.4531H262.188V78.1094H271.156ZM279.062 76.7031V90H274.562V73.0938H278.781L279.062 76.7031ZM278.406 80.9531H277.188C277.188 79.7031 277.349 78.5781 277.672 77.5781C277.995 76.5677 278.448 75.7083 279.031 75C279.615 74.2812 280.307 73.7344 281.109 73.3594C281.922 72.974 282.828 72.7812 283.828 72.7812C284.62 72.7812 285.344 72.8958 286 73.125C286.656 73.3542 287.219 73.7188 287.688 74.2188C288.167 74.7188 288.531 75.3802 288.781 76.2031C289.042 77.026 289.172 78.0312 289.172 79.2188V90H284.641V79.2031C284.641 78.4531 284.536 77.8698 284.328 77.4531C284.12 77.0365 283.812 76.7448 283.406 76.5781C283.01 76.401 282.521 76.3125 281.938 76.3125C281.333 76.3125 280.807 76.4323 280.359 76.6719C279.922 76.9115 279.557 77.2448 279.266 77.6719C278.984 78.0885 278.771 78.5781 278.625 79.1406C278.479 79.7031 278.406 80.3073 278.406 80.9531ZM291.875 81.7188V81.3906C291.875 80.151 292.052 79.0104 292.406 77.9688C292.76 76.9167 293.276 76.0052 293.953 75.2344C294.63 74.4635 295.464 73.8646 296.453 73.4375C297.443 73 298.578 72.7812 299.859 72.7812C301.141 72.7812 302.281 73 303.281 73.4375C304.281 73.8646 305.12 74.4635 305.797 75.2344C306.484 76.0052 307.005 76.9167 307.359 77.9688C307.714 79.0104 307.891 80.151 307.891 81.3906V81.7188C307.891 82.9479 307.714 84.0885 307.359 85.1406C307.005 86.1823 306.484 87.0938 305.797 87.875C305.12 88.6458 304.286 89.2448 303.297 89.6719C302.307 90.099 301.172 90.3125 299.891 90.3125C298.609 90.3125 297.469 90.099 296.469 89.6719C295.479 89.2448 294.641 88.6458 293.953 87.875C293.276 87.0938 292.76 86.1823 292.406 85.1406C292.052 84.0885 291.875 82.9479 291.875 81.7188ZM296.375 81.3906V81.7188C296.375 82.4271 296.438 83.0885 296.562 83.7031C296.688 84.3177 296.885 84.8594 297.156 85.3281C297.438 85.7865 297.802 86.1458 298.25 86.4062C298.698 86.6667 299.245 86.7969 299.891 86.7969C300.516 86.7969 301.052 86.6667 301.5 86.4062C301.948 86.1458 302.307 85.7865 302.578 85.3281C302.849 84.8594 303.047 84.3177 303.172 83.7031C303.307 83.0885 303.375 82.4271 303.375 81.7188V81.3906C303.375 80.7031 303.307 80.0573 303.172 79.4531C303.047 78.8385 302.844 78.2969 302.562 77.8281C302.292 77.349 301.932 76.974 301.484 76.7031C301.036 76.4323 300.495 76.2969 299.859 76.2969C299.224 76.2969 298.682 76.4323 298.234 76.7031C297.797 76.974 297.438 77.349 297.156 77.8281C296.885 78.2969 296.688 78.8385 296.562 79.4531C296.438 80.0573 296.375 80.7031 296.375 81.3906ZM310.875 87.8281C310.875 87.1615 311.104 86.6042 311.562 86.1562C312.031 85.7083 312.651 85.4844 313.422 85.4844C314.193 85.4844 314.807 85.7083 315.266 86.1562C315.734 86.6042 315.969 87.1615 315.969 87.8281C315.969 88.4948 315.734 89.0521 315.266 89.5C314.807 89.9479 314.193 90.1719 313.422 90.1719C312.651 90.1719 312.031 89.9479 311.562 89.5C311.104 89.0521 310.875 88.4948 310.875 87.8281Z" fill="#EEEEEE"/>
<path d="M39.4403 163.239C38.3722 163.239 37.4119 163.034 36.5597 162.625C35.7131 162.21 35.0369 161.642 34.5312 160.92C34.0256 160.199 33.7557 159.375 33.7216 158.449H36.2784C36.3409 159.199 36.6733 159.815 37.2756 160.298C37.8778 160.781 38.5994 161.023 39.4403 161.023C40.1108 161.023 40.7045 160.869 41.2216 160.562C41.7443 160.25 42.1534 159.821 42.4489 159.276C42.75 158.73 42.9006 158.108 42.9006 157.409C42.9006 156.699 42.7472 156.065 42.4403 155.509C42.1335 154.952 41.7102 154.514 41.1705 154.196C40.6364 153.878 40.0227 153.716 39.3295 153.71C38.8011 153.71 38.2699 153.801 37.7358 153.983C37.2017 154.165 36.7699 154.403 36.4403 154.699L34.0284 154.341L35.0085 145.545H44.6051V147.804H37.1989L36.6449 152.688H36.7472C37.0881 152.358 37.5398 152.082 38.1023 151.861C38.6705 151.639 39.2784 151.528 39.9261 151.528C40.9886 151.528 41.9347 151.781 42.7642 152.287C43.5994 152.793 44.2557 153.483 44.733 154.358C45.2159 155.227 45.4545 156.227 45.4489 157.358C45.4545 158.489 45.1989 159.497 44.6818 160.384C44.1705 161.27 43.4602 161.969 42.5511 162.48C41.6477 162.986 40.6108 163.239 39.4403 163.239ZM54.6385 163.29C53.2919 163.284 52.1413 162.929 51.1868 162.224C50.2322 161.52 49.5021 160.494 48.9964 159.148C48.4908 157.801 48.2379 156.179 48.2379 154.281C48.2379 152.389 48.4908 150.773 48.9964 149.432C49.5078 148.091 50.2408 147.068 51.1953 146.364C52.1555 145.659 53.3033 145.307 54.6385 145.307C55.9737 145.307 57.1186 145.662 58.0732 146.372C59.0277 147.077 59.7578 148.099 60.2635 149.44C60.7749 150.776 61.0305 152.389 61.0305 154.281C61.0305 156.185 60.7777 157.81 60.272 159.156C59.7663 160.497 59.0362 161.523 58.0817 162.233C57.1271 162.938 55.9794 163.29 54.6385 163.29ZM54.6385 161.014C55.8203 161.014 56.7436 160.438 57.4084 159.284C58.0788 158.131 58.4141 156.463 58.4141 154.281C58.4141 152.832 58.2607 151.608 57.9538 150.608C57.6527 149.602 57.218 148.841 56.6499 148.324C56.0874 147.801 55.4169 147.54 54.6385 147.54C53.4624 147.54 52.5391 148.119 51.8686 149.278C51.1982 150.437 50.8601 152.105 50.8544 154.281C50.8544 155.736 51.005 156.966 51.3061 157.972C51.6129 158.972 52.0476 159.73 52.6101 160.247C53.1726 160.759 53.8487 161.014 54.6385 161.014ZM70.1307 163.239C68.9602 163.239 67.9148 163.037 66.9943 162.634C66.0795 162.23 65.3551 161.67 64.821 160.955C64.2926 160.233 64.0085 159.398 63.9688 158.449H66.6449C66.679 158.966 66.8523 159.415 67.1648 159.795C67.483 160.17 67.8977 160.46 68.4091 160.665C68.9205 160.869 69.4886 160.972 70.1136 160.972C70.8011 160.972 71.4091 160.852 71.9375 160.614C72.4716 160.375 72.8892 160.043 73.1903 159.616C73.4915 159.185 73.642 158.688 73.642 158.125C73.642 157.54 73.4915 157.026 73.1903 156.582C72.8949 156.134 72.4602 155.781 71.8864 155.526C71.3182 155.27 70.6307 155.142 69.8239 155.142H68.3494V152.994H69.8239C70.4716 152.994 71.0398 152.878 71.5284 152.645C72.0227 152.412 72.4091 152.088 72.6875 151.673C72.9659 151.253 73.1051 150.761 73.1051 150.199C73.1051 149.659 72.983 149.19 72.7386 148.793C72.5 148.389 72.1591 148.074 71.7159 147.847C71.2784 147.619 70.7614 147.506 70.1648 147.506C69.5966 147.506 69.0653 147.611 68.571 147.821C68.0824 148.026 67.6847 148.321 67.3778 148.707C67.071 149.088 66.9063 149.545 66.8835 150.08H64.3352C64.3636 149.136 64.642 148.307 65.1705 147.591C65.7045 146.875 66.4091 146.315 67.2841 145.912C68.1591 145.509 69.1307 145.307 70.1989 145.307C71.3182 145.307 72.2841 145.526 73.0966 145.963C73.9148 146.395 74.5455 146.972 74.9886 147.693C75.4375 148.415 75.6591 149.205 75.6534 150.062C75.6591 151.04 75.3864 151.869 74.8352 152.551C74.2898 153.233 73.5625 153.69 72.6534 153.923V154.06C73.8125 154.236 74.7102 154.696 75.3466 155.44C75.9886 156.185 76.3068 157.108 76.3011 158.21C76.3068 159.17 76.0398 160.031 75.5 160.793C74.9659 161.554 74.2358 162.153 73.3097 162.591C72.3835 163.023 71.3239 163.239 70.1307 163.239ZM79.5227 163V161.091L85.429 154.972C86.0597 154.307 86.5795 153.724 86.9886 153.224C87.4034 152.719 87.7131 152.239 87.9176 151.784C88.1222 151.33 88.2244 150.847 88.2244 150.335C88.2244 149.756 88.0881 149.256 87.8153 148.835C87.5426 148.409 87.1705 148.082 86.6989 147.855C86.2273 147.622 85.696 147.506 85.1051 147.506C84.4801 147.506 83.9347 147.634 83.4688 147.889C83.0028 148.145 82.6449 148.506 82.3949 148.972C82.1449 149.437 82.0199 149.983 82.0199 150.608H79.5057C79.5057 149.545 79.75 148.616 80.2386 147.821C80.7273 147.026 81.3977 146.409 82.25 145.972C83.1023 145.528 84.071 145.307 85.1562 145.307C86.2528 145.307 87.2188 145.526 88.054 145.963C88.8949 146.395 89.5511 146.986 90.0227 147.736C90.4943 148.48 90.7301 149.321 90.7301 150.259C90.7301 150.906 90.608 151.54 90.3636 152.159C90.125 152.778 89.7074 153.469 89.1108 154.23C88.5142 154.986 87.6847 155.903 86.6222 156.983L83.1534 160.614V160.741H91.0114V163H79.5227ZM106.67 163.29C105.323 163.284 104.173 162.929 103.218 162.224C102.263 161.52 101.533 160.494 101.028 159.148C100.522 157.801 100.269 156.179 100.269 154.281C100.269 152.389 100.522 150.773 101.028 149.432C101.539 148.091 102.272 147.068 103.227 146.364C104.187 145.659 105.335 145.307 106.67 145.307C108.005 145.307 109.15 145.662 110.104 146.372C111.059 147.077 111.789 148.099 112.295 149.44C112.806 150.776 113.062 152.389 113.062 154.281C113.062 156.185 112.809 157.81 112.303 159.156C111.798 160.497 111.067 161.523 110.113 162.233C109.158 162.938 108.011 163.29 106.67 163.29ZM106.67 161.014C107.852 161.014 108.775 160.438 109.44 159.284C110.11 158.131 110.445 156.463 110.445 154.281C110.445 152.832 110.292 151.608 109.985 150.608C109.684 149.602 109.249 148.841 108.681 148.324C108.119 147.801 107.448 147.54 106.67 147.54C105.494 147.54 104.57 148.119 103.9 149.278C103.229 150.437 102.891 152.105 102.886 154.281C102.886 155.736 103.036 156.966 103.337 157.972C103.644 158.972 104.079 159.73 104.641 160.247C105.204 160.759 105.88 161.014 106.67 161.014ZM122.162 163.29C120.815 163.284 119.665 162.929 118.71 162.224C117.756 161.52 117.026 160.494 116.52 159.148C116.014 157.801 115.761 156.179 115.761 154.281C115.761 152.389 116.014 150.773 116.52 149.432C117.031 148.091 117.764 147.068 118.719 146.364C119.679 145.659 120.827 145.307 122.162 145.307C123.497 145.307 124.642 145.662 125.597 146.372C126.551 147.077 127.281 148.099 127.787 149.44C128.298 150.776 128.554 152.389 128.554 154.281C128.554 156.185 128.301 157.81 127.795 159.156C127.29 160.497 126.56 161.523 125.605 162.233C124.651 162.938 123.503 163.29 122.162 163.29ZM122.162 161.014C123.344 161.014 124.267 160.438 124.932 159.284C125.602 158.131 125.938 156.463 125.938 154.281C125.938 152.832 125.784 151.608 125.477 150.608C125.176 149.602 124.741 148.841 124.173 148.324C123.611 147.801 122.94 147.54 122.162 147.54C120.986 147.54 120.063 148.119 119.392 149.278C118.722 150.437 118.384 152.105 118.378 154.281C118.378 155.736 118.528 156.966 118.83 157.972C119.136 158.972 119.571 159.73 120.134 160.247C120.696 160.759 121.372 161.014 122.162 161.014ZM137.654 163.29C136.308 163.284 135.157 162.929 134.202 162.224C133.248 161.52 132.518 160.494 132.012 159.148C131.506 157.801 131.254 156.179 131.254 154.281C131.254 152.389 131.506 150.773 132.012 149.432C132.523 148.091 133.256 147.068 134.211 146.364C135.171 145.659 136.319 145.307 137.654 145.307C138.989 145.307 140.134 145.662 141.089 146.372C142.043 147.077 142.773 148.099 143.279 149.44C143.79 150.776 144.046 152.389 144.046 154.281C144.046 156.185 143.793 157.81 143.288 159.156C142.782 160.497 142.052 161.523 141.097 162.233C140.143 162.938 138.995 163.29 137.654 163.29ZM137.654 161.014C138.836 161.014 139.759 160.438 140.424 159.284C141.094 158.131 141.43 156.463 141.43 154.281C141.43 152.832 141.276 151.608 140.969 150.608C140.668 149.602 140.234 148.841 139.665 148.324C139.103 147.801 138.433 147.54 137.654 147.54C136.478 147.54 135.555 148.119 134.884 149.278C134.214 150.437 133.876 152.105 133.87 154.281C133.87 155.736 134.021 156.966 134.322 157.972C134.629 158.972 135.063 159.73 135.626 160.247C136.188 160.759 136.864 161.014 137.654 161.014ZM153.692 145.545V163H151.05V148.188H150.947L146.771 150.915V148.392L151.126 145.545H153.692ZM170.663 163.239C169.441 163.239 168.362 163.028 167.424 162.608C166.492 162.187 165.762 161.608 165.234 160.869C164.705 160.131 164.444 159.29 164.45 158.347C164.444 157.608 164.594 156.929 164.901 156.31C165.214 155.685 165.637 155.165 166.171 154.75C166.705 154.33 167.302 154.062 167.961 153.949V153.847C167.092 153.636 166.396 153.17 165.873 152.449C165.35 151.727 165.092 150.898 165.097 149.96C165.092 149.068 165.327 148.273 165.805 147.574C166.288 146.869 166.95 146.315 167.79 145.912C168.631 145.509 169.589 145.307 170.663 145.307C171.725 145.307 172.674 145.511 173.509 145.92C174.35 146.324 175.012 146.878 175.495 147.582C175.978 148.281 176.222 149.074 176.228 149.96C176.222 150.898 175.955 151.727 175.427 152.449C174.898 153.17 174.211 153.636 173.364 153.847V153.949C174.018 154.062 174.606 154.33 175.129 154.75C175.657 155.165 176.077 155.685 176.39 156.31C176.708 156.929 176.87 157.608 176.876 158.347C176.87 159.29 176.603 160.131 176.075 160.869C175.546 161.608 174.813 162.187 173.876 162.608C172.944 163.028 171.873 163.239 170.663 163.239ZM170.663 161.082C171.384 161.082 172.009 160.963 172.538 160.724C173.066 160.48 173.475 160.142 173.765 159.71C174.055 159.273 174.202 158.761 174.208 158.176C174.202 157.568 174.043 157.031 173.731 156.565C173.424 156.099 173.006 155.733 172.478 155.466C171.95 155.199 171.344 155.065 170.663 155.065C169.975 155.065 169.364 155.199 168.83 155.466C168.296 155.733 167.876 156.099 167.569 156.565C167.262 157.031 167.112 157.568 167.117 158.176C167.112 158.761 167.251 159.273 167.535 159.71C167.825 160.142 168.237 160.48 168.771 160.724C169.305 160.963 169.935 161.082 170.663 161.082ZM170.663 152.96C171.242 152.96 171.756 152.844 172.205 152.611C172.654 152.378 173.006 152.054 173.262 151.639C173.523 151.224 173.657 150.739 173.663 150.182C173.657 149.636 173.526 149.159 173.271 148.75C173.021 148.341 172.671 148.026 172.222 147.804C171.773 147.577 171.254 147.463 170.663 147.463C170.06 147.463 169.532 147.577 169.077 147.804C168.629 148.026 168.279 148.341 168.029 148.75C167.779 149.159 167.657 149.636 167.663 150.182C167.657 150.739 167.782 151.224 168.038 151.639C168.293 152.054 168.646 152.378 169.094 152.611C169.549 152.844 170.072 152.96 170.663 152.96ZM185.827 163.239C184.605 163.239 183.526 163.028 182.588 162.608C181.656 162.187 180.926 161.608 180.398 160.869C179.869 160.131 179.608 159.29 179.614 158.347C179.608 157.608 179.759 156.929 180.065 156.31C180.378 155.685 180.801 155.165 181.335 154.75C181.869 154.33 182.466 154.062 183.125 153.949V153.847C182.256 153.636 181.56 153.17 181.037 152.449C180.514 151.727 180.256 150.898 180.261 149.96C180.256 149.068 180.491 148.273 180.969 147.574C181.452 146.869 182.114 146.315 182.955 145.912C183.795 145.509 184.753 145.307 185.827 145.307C186.889 145.307 187.838 145.511 188.673 145.92C189.514 146.324 190.176 146.878 190.659 147.582C191.142 148.281 191.386 149.074 191.392 149.96C191.386 150.898 191.119 151.727 190.591 152.449C190.063 153.17 189.375 153.636 188.528 153.847V153.949C189.182 154.062 189.77 154.33 190.293 154.75C190.821 155.165 191.241 155.685 191.554 156.31C191.872 156.929 192.034 157.608 192.04 158.347C192.034 159.29 191.767 160.131 191.239 160.869C190.71 161.608 189.977 162.187 189.04 162.608C188.108 163.028 187.037 163.239 185.827 163.239ZM185.827 161.082C186.548 161.082 187.173 160.963 187.702 160.724C188.23 160.48 188.639 160.142 188.929 159.71C189.219 159.273 189.366 158.761 189.372 158.176C189.366 157.568 189.207 157.031 188.895 156.565C188.588 156.099 188.17 155.733 187.642 155.466C187.114 155.199 186.509 155.065 185.827 155.065C185.139 155.065 184.528 155.199 183.994 155.466C183.46 155.733 183.04 156.099 182.733 156.565C182.426 157.031 182.276 157.568 182.281 158.176C182.276 158.761 182.415 159.273 182.699 159.71C182.989 160.142 183.401 160.48 183.935 160.724C184.469 160.963 185.099 161.082 185.827 161.082ZM185.827 152.96C186.406 152.96 186.92 152.844 187.369 152.611C187.818 152.378 188.17 152.054 188.426 151.639C188.688 151.224 188.821 150.739 188.827 150.182C188.821 149.636 188.69 149.159 188.435 148.75C188.185 148.341 187.835 148.026 187.386 147.804C186.938 147.577 186.418 147.463 185.827 147.463C185.224 147.463 184.696 147.577 184.241 147.804C183.793 148.026 183.443 148.341 183.193 148.75C182.943 149.159 182.821 149.636 182.827 150.182C182.821 150.739 182.946 151.224 183.202 151.639C183.457 152.054 183.81 152.378 184.259 152.611C184.713 152.844 185.236 152.96 185.827 152.96ZM200.897 145.307C201.675 145.312 202.442 145.455 203.198 145.733C203.954 146.011 204.636 146.466 205.244 147.097C205.857 147.727 206.346 148.58 206.71 149.653C207.079 150.722 207.266 152.051 207.272 153.642C207.272 155.17 207.119 156.531 206.812 157.724C206.505 158.912 206.065 159.915 205.491 160.733C204.923 161.551 204.232 162.173 203.42 162.599C202.607 163.026 201.692 163.239 200.675 163.239C199.636 163.239 198.712 163.034 197.906 162.625C197.099 162.216 196.442 161.651 195.937 160.929C195.431 160.202 195.116 159.366 194.991 158.423H197.59C197.761 159.173 198.107 159.781 198.63 160.247C199.158 160.707 199.84 160.938 200.675 160.938C201.954 160.938 202.951 160.381 203.667 159.267C204.383 158.148 204.744 156.585 204.749 154.58H204.613C204.317 155.068 203.948 155.489 203.505 155.841C203.067 156.193 202.576 156.466 202.031 156.659C201.485 156.852 200.903 156.949 200.283 156.949C199.278 156.949 198.363 156.702 197.539 156.207C196.715 155.713 196.059 155.034 195.57 154.17C195.082 153.307 194.837 152.321 194.837 151.213C194.837 150.111 195.087 149.111 195.587 148.213C196.093 147.315 196.798 146.605 197.701 146.082C198.61 145.554 199.675 145.295 200.897 145.307ZM200.906 147.523C200.241 147.523 199.641 147.687 199.107 148.017C198.579 148.341 198.161 148.781 197.854 149.338C197.548 149.889 197.394 150.503 197.394 151.179C197.394 151.855 197.542 152.469 197.837 153.02C198.138 153.565 198.548 154 199.065 154.324C199.587 154.642 200.184 154.801 200.854 154.801C201.354 154.801 201.82 154.705 202.252 154.511C202.684 154.318 203.062 154.051 203.386 153.71C203.71 153.364 203.962 152.972 204.144 152.534C204.326 152.097 204.417 151.636 204.417 151.153C204.417 150.511 204.263 149.915 203.957 149.364C203.656 148.812 203.241 148.369 202.712 148.034C202.184 147.693 201.582 147.523 200.906 147.523ZM210.47 163L218.089 147.932V147.804H209.277V145.545H220.817V147.881L213.223 163H210.47ZM235.936 145.307C236.714 145.312 237.482 145.455 238.237 145.733C238.993 146.011 239.675 146.466 240.283 147.097C240.896 147.727 241.385 148.58 241.749 149.653C242.118 150.722 242.305 152.051 242.311 153.642C242.311 155.17 242.158 156.531 241.851 157.724C241.544 158.912 241.104 159.915 240.53 160.733C239.962 161.551 239.271 162.173 238.459 162.599C237.646 163.026 236.732 163.239 235.714 163.239C234.675 163.239 233.751 163.034 232.945 162.625C232.138 162.216 231.482 161.651 230.976 160.929C230.47 160.202 230.155 159.366 230.03 158.423H232.629C232.8 159.173 233.146 159.781 233.669 160.247C234.197 160.707 234.879 160.938 235.714 160.938C236.993 160.938 237.99 160.381 238.706 159.267C239.422 158.148 239.783 156.585 239.788 154.58H239.652C239.357 155.068 238.987 155.489 238.544 155.841C238.107 156.193 237.615 156.466 237.07 156.659C236.524 156.852 235.942 156.949 235.322 156.949C234.317 156.949 233.402 156.702 232.578 156.207C231.754 155.713 231.098 155.034 230.609 154.17C230.121 153.307 229.876 152.321 229.876 151.213C229.876 150.111 230.126 149.111 230.626 148.213C231.132 147.315 231.837 146.605 232.74 146.082C233.649 145.554 234.714 145.295 235.936 145.307ZM235.945 147.523C235.28 147.523 234.68 147.687 234.146 148.017C233.618 148.341 233.2 148.781 232.893 149.338C232.587 149.889 232.433 150.503 232.433 151.179C232.433 151.855 232.581 152.469 232.876 153.02C233.178 153.565 233.587 154 234.104 154.324C234.626 154.642 235.223 154.801 235.893 154.801C236.393 154.801 236.859 154.705 237.291 154.511C237.723 154.318 238.101 154.051 238.425 153.71C238.749 153.364 239.001 152.972 239.183 152.534C239.365 152.097 239.456 151.636 239.456 151.153C239.456 150.511 239.303 149.915 238.996 149.364C238.695 148.812 238.28 148.369 237.751 148.034C237.223 147.693 236.621 147.523 235.945 147.523ZM251.194 145.307C251.972 145.312 252.739 145.455 253.495 145.733C254.251 146.011 254.933 146.466 255.54 147.097C256.154 147.727 256.643 148.58 257.006 149.653C257.376 150.722 257.563 152.051 257.569 153.642C257.569 155.17 257.415 156.531 257.109 157.724C256.802 158.912 256.362 159.915 255.788 160.733C255.219 161.551 254.529 162.173 253.717 162.599C252.904 163.026 251.989 163.239 250.972 163.239C249.933 163.239 249.009 163.034 248.202 162.625C247.396 162.216 246.739 161.651 246.234 160.929C245.728 160.202 245.413 159.366 245.288 158.423H247.887C248.058 159.173 248.404 159.781 248.927 160.247C249.455 160.707 250.137 160.938 250.972 160.938C252.251 160.938 253.248 160.381 253.964 159.267C254.68 158.148 255.04 156.585 255.046 154.58H254.91C254.614 155.068 254.245 155.489 253.802 155.841C253.364 156.193 252.873 156.466 252.327 156.659C251.782 156.852 251.2 156.949 250.58 156.949C249.575 156.949 248.66 156.702 247.836 156.207C247.012 155.713 246.356 155.034 245.867 154.17C245.379 153.307 245.134 152.321 245.134 151.213C245.134 150.111 245.384 149.111 245.884 148.213C246.39 147.315 247.094 146.605 247.998 146.082C248.907 145.554 249.972 145.295 251.194 145.307ZM251.202 147.523C250.538 147.523 249.938 147.687 249.404 148.017C248.876 148.341 248.458 148.781 248.151 149.338C247.844 149.889 247.691 150.503 247.691 151.179C247.691 151.855 247.839 152.469 248.134 153.02C248.435 153.565 248.844 154 249.362 154.324C249.884 154.642 250.481 154.801 251.151 154.801C251.651 154.801 252.117 154.705 252.549 154.511C252.981 154.318 253.359 154.051 253.683 153.71C254.006 153.364 254.259 152.972 254.441 152.534C254.623 152.097 254.714 151.636 254.714 151.153C254.714 150.511 254.56 149.915 254.254 149.364C253.952 148.812 253.538 148.369 253.009 148.034C252.481 147.693 251.879 147.523 251.202 147.523ZM266.452 145.307C267.23 145.312 267.997 145.455 268.753 145.733C269.509 146.011 270.19 146.466 270.798 147.097C271.412 147.727 271.901 148.58 272.264 149.653C272.634 150.722 272.821 152.051 272.827 153.642C272.827 155.17 272.673 156.531 272.366 157.724C272.06 158.912 271.619 159.915 271.045 160.733C270.477 161.551 269.787 162.173 268.974 162.599C268.162 163.026 267.247 163.239 266.23 163.239C265.19 163.239 264.267 163.034 263.46 162.625C262.653 162.216 261.997 161.651 261.491 160.929C260.986 160.202 260.67 159.366 260.545 158.423H263.145C263.315 159.173 263.662 159.781 264.185 160.247C264.713 160.707 265.395 160.938 266.23 160.938C267.509 160.938 268.506 160.381 269.222 159.267C269.938 158.148 270.298 156.585 270.304 154.58H270.168C269.872 155.068 269.503 155.489 269.06 155.841C268.622 156.193 268.131 156.466 267.585 156.659C267.04 156.852 266.457 156.949 265.838 156.949C264.832 156.949 263.918 156.702 263.094 156.207C262.27 155.713 261.614 155.034 261.125 154.17C260.636 153.307 260.392 152.321 260.392 151.213C260.392 150.111 260.642 149.111 261.142 148.213C261.648 147.315 262.352 146.605 263.256 146.082C264.165 145.554 265.23 145.295 266.452 145.307ZM266.46 147.523C265.795 147.523 265.196 147.687 264.662 148.017C264.134 148.341 263.716 148.781 263.409 149.338C263.102 149.889 262.949 150.503 262.949 151.179C262.949 151.855 263.097 152.469 263.392 153.02C263.693 153.565 264.102 154 264.619 154.324C265.142 154.642 265.739 154.801 266.409 154.801C266.909 154.801 267.375 154.705 267.807 154.511C268.239 154.318 268.616 154.051 268.94 153.71C269.264 153.364 269.517 152.972 269.699 152.534C269.881 152.097 269.972 151.636 269.972 151.153C269.972 150.511 269.818 149.915 269.511 149.364C269.21 148.812 268.795 148.369 268.267 148.034C267.739 147.693 267.136 147.523 266.46 147.523ZM281.71 145.307C282.488 145.312 283.255 145.455 284.011 145.733C284.766 146.011 285.448 146.466 286.056 147.097C286.67 147.727 287.158 148.58 287.522 149.653C287.891 150.722 288.079 152.051 288.085 153.642C288.085 155.17 287.931 156.531 287.624 157.724C287.317 158.912 286.877 159.915 286.303 160.733C285.735 161.551 285.045 162.173 284.232 162.599C283.42 163.026 282.505 163.239 281.488 163.239C280.448 163.239 279.525 163.034 278.718 162.625C277.911 162.216 277.255 161.651 276.749 160.929C276.244 160.202 275.928 159.366 275.803 158.423H278.403C278.573 159.173 278.92 159.781 279.442 160.247C279.971 160.707 280.653 160.938 281.488 160.938C282.766 160.938 283.763 160.381 284.479 159.267C285.195 158.148 285.556 156.585 285.562 154.58H285.425C285.13 155.068 284.761 155.489 284.317 155.841C283.88 156.193 283.388 156.466 282.843 156.659C282.298 156.852 281.715 156.949 281.096 156.949C280.09 156.949 279.175 156.702 278.352 156.207C277.528 155.713 276.871 155.034 276.383 154.17C275.894 153.307 275.65 152.321 275.65 151.213C275.65 150.111 275.9 149.111 276.4 148.213C276.906 147.315 277.61 146.605 278.513 146.082C279.423 145.554 280.488 145.295 281.71 145.307ZM281.718 147.523C281.053 147.523 280.454 147.687 279.92 148.017C279.391 148.341 278.974 148.781 278.667 149.338C278.36 149.889 278.207 150.503 278.207 151.179C278.207 151.855 278.354 152.469 278.65 153.02C278.951 153.565 279.36 154 279.877 154.324C280.4 154.642 280.996 154.801 281.667 154.801C282.167 154.801 282.633 154.705 283.065 154.511C283.496 154.318 283.874 154.051 284.198 153.71C284.522 153.364 284.775 152.972 284.957 152.534C285.138 152.097 285.229 151.636 285.229 151.153C285.229 150.511 285.076 149.915 284.769 149.364C284.468 148.812 284.053 148.369 283.525 148.034C282.996 147.693 282.394 147.523 281.718 147.523Z" fill="#FFD16A"/>
<path d="M90.2955 184.364V196H88.8864V185.841H88.8182L85.9773 187.727V186.295L88.8864 184.364H90.2955ZM93.642 196V194.977L97.483 190.773C97.9337 190.28 98.3049 189.852 98.5966 189.489C98.8883 189.121 99.1042 188.777 99.2443 188.455C99.3883 188.129 99.4602 187.788 99.4602 187.432C99.4602 187.023 99.3617 186.669 99.1648 186.369C98.9716 186.07 98.7064 185.839 98.3693 185.676C98.0322 185.513 97.6534 185.432 97.233 185.432C96.786 185.432 96.3958 185.525 96.0625 185.71C95.733 185.892 95.4773 186.148 95.2955 186.477C95.1174 186.807 95.0284 187.193 95.0284 187.636H93.6875C93.6875 186.955 93.8447 186.356 94.1591 185.841C94.4735 185.326 94.9015 184.924 95.4432 184.636C95.9886 184.348 96.6004 184.205 97.2784 184.205C97.9602 184.205 98.5644 184.348 99.0909 184.636C99.6174 184.924 100.03 185.312 100.33 185.801C100.629 186.29 100.778 186.833 100.778 187.432C100.778 187.86 100.701 188.278 100.545 188.688C100.394 189.093 100.129 189.545 99.75 190.045C99.375 190.542 98.8542 191.148 98.1875 191.864L95.5739 194.659V194.75H100.983V196H93.642ZM107.466 183.818L103.716 197.75H102.489L106.239 183.818H107.466ZM109.033 196V194.977L112.874 190.773C113.324 190.28 113.696 189.852 113.987 189.489C114.279 189.121 114.495 188.777 114.635 188.455C114.779 188.129 114.851 187.788 114.851 187.432C114.851 187.023 114.752 186.669 114.555 186.369C114.362 186.07 114.097 185.839 113.76 185.676C113.423 185.513 113.044 185.432 112.624 185.432C112.177 185.432 111.786 185.525 111.453 185.71C111.124 185.892 110.868 186.148 110.686 186.477C110.508 186.807 110.419 187.193 110.419 187.636H109.078C109.078 186.955 109.235 186.356 109.55 185.841C109.864 185.326 110.292 184.924 110.834 184.636C111.379 184.348 111.991 184.205 112.669 184.205C113.351 184.205 113.955 184.348 114.482 184.636C115.008 184.924 115.421 185.312 115.72 185.801C116.019 186.29 116.169 186.833 116.169 187.432C116.169 187.86 116.091 188.278 115.936 188.688C115.785 189.093 115.519 189.545 115.141 190.045C114.766 190.542 114.245 191.148 113.578 191.864L110.964 194.659V194.75H116.374V196H109.033ZM122.811 184.364V196H121.402V185.841H121.334L118.493 187.727V186.295L121.402 184.364H122.811Z" fill="#FFD16A"/>
<path d="M222 196.159C221.144 196.159 220.415 195.926 219.812 195.46C219.21 194.991 218.75 194.311 218.432 193.42C218.114 192.527 217.955 191.447 217.955 190.182C217.955 188.924 218.114 187.85 218.432 186.96C218.754 186.066 219.216 185.384 219.818 184.915C220.424 184.441 221.152 184.205 222 184.205C222.848 184.205 223.574 184.441 224.176 184.915C224.782 185.384 225.244 186.066 225.562 186.96C225.884 187.85 226.045 188.924 226.045 190.182C226.045 191.447 225.886 192.527 225.568 193.42C225.25 194.311 224.79 194.991 224.188 195.46C223.585 195.926 222.856 196.159 222 196.159ZM222 194.909C222.848 194.909 223.508 194.5 223.977 193.682C224.447 192.864 224.682 191.697 224.682 190.182C224.682 189.174 224.574 188.316 224.358 187.608C224.146 186.9 223.839 186.36 223.438 185.989C223.04 185.617 222.561 185.432 222 185.432C221.159 185.432 220.502 185.847 220.028 186.676C219.555 187.502 219.318 188.67 219.318 190.182C219.318 191.189 219.424 192.045 219.636 192.75C219.848 193.455 220.153 193.991 220.551 194.358C220.953 194.725 221.436 194.909 222 194.909ZM227.932 193.614V192.455L233.045 184.364H233.886V186.159H233.318L229.455 192.273V192.364H236.341V193.614H227.932ZM233.409 196V193.261V192.722V184.364H234.75V196H233.409ZM242.607 183.818L238.857 197.75H237.629L241.379 183.818H242.607ZM248.105 196.159C247.355 196.159 246.687 196.03 246.099 195.773C245.516 195.515 245.052 195.157 244.707 194.699C244.366 194.237 244.181 193.701 244.151 193.091H245.582C245.613 193.466 245.741 193.79 245.969 194.062C246.196 194.331 246.493 194.54 246.861 194.688C247.228 194.835 247.635 194.909 248.082 194.909C248.582 194.909 249.026 194.822 249.412 194.648C249.798 194.473 250.101 194.231 250.321 193.92C250.541 193.61 250.651 193.25 250.651 192.841C250.651 192.413 250.545 192.036 250.332 191.71C250.12 191.381 249.81 191.123 249.401 190.938C248.991 190.752 248.491 190.659 247.901 190.659H246.969V189.409H247.901C248.363 189.409 248.768 189.326 249.116 189.159C249.469 188.992 249.743 188.758 249.94 188.455C250.141 188.152 250.241 187.795 250.241 187.386C250.241 186.992 250.154 186.65 249.98 186.358C249.806 186.066 249.56 185.839 249.241 185.676C248.927 185.513 248.556 185.432 248.128 185.432C247.726 185.432 247.348 185.506 246.991 185.653C246.639 185.797 246.351 186.008 246.128 186.284C245.904 186.557 245.783 186.886 245.764 187.273H244.401C244.423 186.663 244.607 186.129 244.952 185.67C245.296 185.208 245.747 184.848 246.304 184.591C246.865 184.333 247.48 184.205 248.151 184.205C248.87 184.205 249.488 184.35 250.003 184.642C250.518 184.93 250.914 185.311 251.19 185.784C251.467 186.258 251.605 186.769 251.605 187.318C251.605 187.973 251.433 188.532 251.088 188.994C250.747 189.456 250.283 189.777 249.696 189.955V190.045C250.431 190.167 251.005 190.479 251.418 190.983C251.83 191.483 252.037 192.102 252.037 192.841C252.037 193.473 251.865 194.042 251.52 194.545C251.179 195.045 250.713 195.439 250.122 195.727C249.531 196.015 248.859 196.159 248.105 196.159ZM258.156 196.159C257.3 196.159 256.571 195.926 255.969 195.46C255.366 194.991 254.906 194.311 254.588 193.42C254.27 192.527 254.111 191.447 254.111 190.182C254.111 188.924 254.27 187.85 254.588 186.96C254.91 186.066 255.372 185.384 255.974 184.915C256.58 184.441 257.308 184.205 258.156 184.205C259.005 184.205 259.73 184.441 260.332 184.915C260.938 185.384 261.401 186.066 261.719 186.96C262.041 187.85 262.202 188.924 262.202 190.182C262.202 191.447 262.043 192.527 261.724 193.42C261.406 194.311 260.946 194.991 260.344 195.46C259.741 195.926 259.012 196.159 258.156 196.159ZM258.156 194.909C259.005 194.909 259.664 194.5 260.134 193.682C260.603 192.864 260.838 191.697 260.838 190.182C260.838 189.174 260.73 188.316 260.514 187.608C260.302 186.9 259.995 186.36 259.594 185.989C259.196 185.617 258.717 185.432 258.156 185.432C257.315 185.432 256.658 185.847 256.185 186.676C255.711 187.502 255.474 188.67 255.474 190.182C255.474 191.189 255.58 192.045 255.793 192.75C256.005 193.455 256.31 193.991 256.707 194.358C257.109 194.725 257.592 194.909 258.156 194.909Z" fill="#FFD16A"/>
<path d="M33.5936 180.727H34.6447L37.1163 186.764H37.2015L39.6731 180.727H40.7243V188H39.9004V182.474H39.8294L37.5566 188H36.7612L34.4885 182.474H34.4174V188H33.5936V180.727ZM42.4901 188V180.727H46.8793V181.509H43.3707V183.966H46.652V184.747H43.3707V187.219H46.9361V188H42.4901ZM48.4666 180.727H49.5178L51.9893 186.764H52.0746L54.5462 180.727H55.5973V188H54.7734V182.474H54.7024L52.4297 188H51.6342L49.3615 182.474H49.2905V188H48.4666V180.727ZM57.3631 188V180.727H59.9057C60.4123 180.727 60.8302 180.815 61.1593 180.99C61.4883 181.163 61.7334 181.396 61.8944 181.69C62.0553 181.981 62.1358 182.304 62.1358 182.659C62.1358 182.972 62.0802 183.23 61.9689 183.433C61.86 183.637 61.7156 183.798 61.5357 183.916C61.3581 184.035 61.1652 184.122 60.9569 184.179V184.25C61.1794 184.264 61.4031 184.342 61.628 184.484C61.8529 184.626 62.0411 184.83 62.1926 185.095C62.3442 185.36 62.4199 185.685 62.4199 186.068C62.4199 186.433 62.3371 186.761 62.1713 187.052C62.0056 187.343 61.744 187.574 61.3865 187.744C61.0291 187.915 60.5639 188 59.9909 188H57.3631ZM58.2438 187.219H59.9909C60.5662 187.219 60.9746 187.107 61.2161 186.885C61.4599 186.66 61.5819 186.388 61.5819 186.068C61.5819 185.822 61.5191 185.595 61.3936 185.386C61.2682 185.176 61.0894 185.008 60.8574 184.882C60.6254 184.754 60.3508 184.69 60.0336 184.69H58.2438V187.219ZM58.2438 183.923H59.8773C60.1425 183.923 60.3816 183.871 60.5946 183.767C60.8101 183.663 60.9805 183.516 61.106 183.327C61.2338 183.137 61.2978 182.915 61.2978 182.659C61.2978 182.339 61.1865 182.068 60.964 181.846C60.7414 181.621 60.3887 181.509 59.9057 181.509H58.2438V183.923ZM63.867 188V180.727H66.3244C66.8926 180.727 67.359 180.824 67.7235 181.018C68.0881 181.21 68.358 181.474 68.5332 181.81C68.7084 182.147 68.796 182.529 68.796 182.957C68.796 183.386 68.7084 183.766 68.5332 184.097C68.358 184.429 68.0893 184.689 67.7271 184.879C67.3649 185.066 66.902 185.159 66.3386 185.159H64.35V184.364H66.3102C66.6984 184.364 67.0109 184.307 67.2477 184.193C67.4868 184.08 67.6596 183.919 67.7662 183.71C67.8751 183.5 67.9295 183.249 67.9295 182.957C67.9295 182.666 67.8751 182.412 67.7662 182.194C67.6573 181.976 67.4833 181.808 67.2441 181.69C67.005 181.569 66.689 181.509 66.296 181.509H64.7477V188H63.867ZM67.2903 184.733L69.0801 188H68.0574L66.296 184.733H67.2903ZM76.3999 184.364C76.3999 185.131 76.2614 185.794 75.9844 186.352C75.7074 186.911 75.3274 187.342 74.8445 187.645C74.3615 187.948 73.8099 188.099 73.1896 188.099C72.5694 188.099 72.0178 187.948 71.5348 187.645C71.0518 187.342 70.6719 186.911 70.3949 186.352C70.1179 185.794 69.9794 185.131 69.9794 184.364C69.9794 183.597 70.1179 182.934 70.3949 182.375C70.6719 181.816 71.0518 181.385 71.5348 181.082C72.0178 180.779 72.5694 180.628 73.1896 180.628C73.8099 180.628 74.3615 180.779 74.8445 181.082C75.3274 181.385 75.7074 181.816 75.9844 182.375C76.2614 182.934 76.3999 183.597 76.3999 184.364ZM75.5476 184.364C75.5476 183.734 75.4422 183.202 75.2315 182.769C75.0232 182.336 74.7403 182.008 74.3828 181.786C74.0277 181.563 73.63 181.452 73.1896 181.452C72.7493 181.452 72.3504 181.563 71.9929 181.786C71.6378 182.008 71.3549 182.336 71.1442 182.769C70.9358 183.202 70.8317 183.734 70.8317 184.364C70.8317 184.993 70.9358 185.525 71.1442 185.958C71.3549 186.391 71.6378 186.719 71.9929 186.942C72.3504 187.164 72.7493 187.276 73.1896 187.276C73.63 187.276 74.0277 187.164 74.3828 186.942C74.7403 186.719 75.0232 186.391 75.2315 185.958C75.4422 185.525 75.5476 184.993 75.5476 184.364ZM47.4199 200H45.1756V192.727H47.5194C48.2248 192.727 48.8285 192.873 49.3304 193.164C49.8323 193.453 50.217 193.868 50.4846 194.411C50.7521 194.95 50.8858 195.597 50.8858 196.349C50.8858 197.107 50.7509 197.759 50.481 198.306C50.2111 198.851 49.8181 199.27 49.302 199.563C48.7859 199.854 48.1586 200 47.4199 200ZM46.0563 199.219H47.3631C47.9644 199.219 48.4628 199.103 48.8581 198.871C49.2535 198.639 49.5482 198.308 49.7424 197.88C49.9365 197.451 50.0336 196.941 50.0336 196.349C50.0336 195.762 49.9377 195.257 49.7459 194.833C49.5542 194.407 49.2677 194.08 48.8865 193.853C48.5054 193.623 48.0307 193.509 47.4625 193.509H46.0563V199.219ZM52.3631 200V192.727H56.7523V193.509H53.2438V195.966H56.525V196.747H53.2438V199.219H56.8091V200H52.3631ZM62.3169 194.545C62.2743 194.186 62.1015 193.906 61.7985 193.707C61.4954 193.509 61.1238 193.409 60.6834 193.409C60.3614 193.409 60.0797 193.461 59.8382 193.565C59.5991 193.67 59.4121 193.813 59.2772 193.995C59.1446 194.177 59.0783 194.384 59.0783 194.616C59.0783 194.811 59.1245 194.978 59.2168 195.117C59.3115 195.254 59.4322 195.369 59.579 195.462C59.7258 195.552 59.8797 195.626 60.0407 195.685C60.2016 195.742 60.3496 195.788 60.4846 195.824L61.2232 196.023C61.4126 196.072 61.6233 196.141 61.8553 196.229C62.0897 196.316 62.3134 196.436 62.5265 196.587C62.7419 196.737 62.9194 196.928 63.0591 197.163C63.1988 197.397 63.2686 197.685 63.2686 198.026C63.2686 198.419 63.1657 198.774 62.9597 199.091C62.7561 199.408 62.4578 199.66 62.0648 199.847C61.6742 200.034 61.1995 200.128 60.6408 200.128C60.12 200.128 59.669 200.044 59.2878 199.876C58.909 199.708 58.6107 199.473 58.3929 199.173C58.1775 198.872 58.0556 198.523 58.0272 198.125H58.9363C58.9599 198.4 59.0523 198.627 59.2132 198.807C59.3766 198.984 59.5826 199.117 59.8311 199.205C60.0821 199.29 60.352 199.332 60.6408 199.332C60.977 199.332 61.2788 199.278 61.5463 199.169C61.8139 199.058 62.0257 198.904 62.182 198.707C62.3382 198.509 62.4164 198.277 62.4164 198.011C62.4164 197.77 62.3489 197.573 62.214 197.422C62.079 197.27 61.9015 197.147 61.6813 197.053C61.4611 196.958 61.2232 196.875 60.9675 196.804L60.0726 196.548C59.5044 196.385 59.0546 196.152 58.7232 195.849C58.3917 195.546 58.226 195.149 58.226 194.659C58.226 194.252 58.3361 193.897 58.5563 193.594C58.7788 193.288 59.0771 193.052 59.4512 192.884C59.8276 192.713 60.2478 192.628 60.7118 192.628C61.1806 192.628 61.5972 192.712 61.9618 192.88C62.3264 193.046 62.6152 193.273 62.8283 193.562C63.0437 193.851 63.1574 194.179 63.1692 194.545H62.3169ZM66.9609 200H64.7166V192.727H67.0604C67.7659 192.727 68.3696 192.873 68.8714 193.164C69.3733 193.453 69.758 193.868 70.0256 194.411C70.2931 194.95 70.4268 195.597 70.4268 196.349C70.4268 197.107 70.2919 197.759 70.022 198.306C69.7521 198.851 69.3591 199.27 68.843 199.563C68.3269 199.854 67.6996 200 66.9609 200ZM65.5973 199.219H66.9041C67.5054 199.219 68.0038 199.103 68.3991 198.871C68.7945 198.639 69.0893 198.308 69.2834 197.88C69.4775 197.451 69.5746 196.941 69.5746 196.349C69.5746 195.762 69.4787 195.257 69.2869 194.833C69.0952 194.407 68.8087 194.08 68.4276 193.853C68.0464 193.623 67.5717 193.509 67.0036 193.509H65.5973V199.219ZM71.9041 200V192.727H76.2933V193.509H72.7848V195.966H76.0661V196.747H72.7848V199.219H76.3501V200H71.9041Z" fill="#FFD16A"/>
<path d="M174.212 180.727L176.371 186.849H176.456L178.616 180.727H179.539L176.868 188H175.959L173.289 180.727H174.212ZM180.345 188H179.422L182.092 180.727H183.001L185.672 188H184.748L182.575 181.878H182.518L180.345 188ZM180.686 185.159H184.407V185.94H180.686V185.159ZM182.163 179.989L183.03 178.341H184.01L182.902 179.989H182.163ZM186.805 188V180.727H187.685V187.219H191.066V188H186.805ZM193.31 180.727V188H192.43V180.727H193.31ZM197.32 188H195.076V180.727H197.42C198.125 180.727 198.729 180.873 199.231 181.164C199.733 181.453 200.117 181.868 200.385 182.411C200.652 182.95 200.786 183.597 200.786 184.349C200.786 185.107 200.651 185.759 200.381 186.306C200.112 186.851 199.719 187.27 199.202 187.563C198.686 187.854 198.059 188 197.32 188ZM195.957 187.219H197.263C197.865 187.219 198.363 187.103 198.759 186.871C199.154 186.639 199.449 186.308 199.643 185.88C199.837 185.451 199.934 184.941 199.934 184.349C199.934 183.762 199.838 183.257 199.646 182.833C199.455 182.407 199.168 182.08 198.787 181.853C198.406 181.623 197.931 181.509 197.363 181.509H195.957V187.219ZM208.4 184.364C208.4 185.131 208.261 185.794 207.984 186.352C207.707 186.911 207.327 187.342 206.844 187.645C206.362 187.948 205.81 188.099 205.19 188.099C204.569 188.099 204.018 187.948 203.535 187.645C203.052 187.342 202.672 186.911 202.395 186.352C202.118 185.794 201.979 185.131 201.979 184.364C201.979 183.597 202.118 182.934 202.395 182.375C202.672 181.816 203.052 181.385 203.535 181.082C204.018 180.779 204.569 180.628 205.19 180.628C205.81 180.628 206.362 180.779 206.844 181.082C207.327 181.385 207.707 181.816 207.984 182.375C208.261 182.934 208.4 183.597 208.4 184.364ZM207.548 184.364C207.548 183.734 207.442 183.202 207.232 182.769C207.023 182.336 206.74 182.008 206.383 181.786C206.028 181.563 205.63 181.452 205.19 181.452C204.749 181.452 204.35 181.563 203.993 181.786C203.638 182.008 203.355 182.336 203.144 182.769C202.936 183.202 202.832 183.734 202.832 184.364C202.832 184.993 202.936 185.525 203.144 185.958C203.355 186.391 203.638 186.719 203.993 186.942C204.35 187.164 204.749 187.276 205.19 187.276C205.63 187.276 206.028 187.164 206.383 186.942C206.74 186.719 207.023 186.391 207.232 185.958C207.442 185.525 207.548 184.993 207.548 184.364ZM191.878 200H190.955L193.625 192.727H194.534L197.205 200H196.282L194.108 193.878H194.051L191.878 200ZM192.219 197.159H195.941V197.94H192.219V197.159ZM197.09 193.509V192.727H202.545V193.509H200.258V200H199.377V193.509H197.09ZM203.904 200V192.727H208.293V193.509H204.785V195.966H208.066V196.747H204.785V199.219H208.35V200H203.904ZM205.708 191.989L206.575 190.341H207.555L206.447 191.989H205.708Z" fill="#FFD16A"/>
<path d="M34.2614 239H32.3977L36.5852 227.364H38.6136L42.8011 239H40.9375L37.6477 229.477H37.5568L34.2614 239ZM34.5739 234.443H40.6193V235.92H34.5739V234.443ZM53.8736 227.364V239H52.2599L46.3452 230.466H46.2372V239H44.4815V227.364H46.1065L52.027 235.909H52.1349V227.364H53.8736ZM57.4176 239H55.554L59.7415 227.364H61.7699L65.9574 239H64.0938L60.804 229.477H60.7131L57.4176 239ZM57.7301 234.443H63.7756V235.92H57.7301V234.443ZM71.8722 239V227.364H73.6278V237.489H78.9006V239H71.8722ZM80.9034 239V227.364H88.1989V228.875H82.6591V232.42H87.8182V233.926H82.6591V237.489H88.267V239H80.9034ZM89.9702 228.875V227.364H98.9759V228.875H95.3452V239H93.5952V228.875H89.9702ZM102.722 227.364V239H100.966V227.364H102.722ZM101.148 226.199L102.477 223.58H104.267L102.506 226.199H101.148ZM114.943 231.148H113.17C113.102 230.769 112.975 230.436 112.79 230.148C112.604 229.86 112.377 229.616 112.108 229.415C111.839 229.214 111.538 229.062 111.205 228.96C110.875 228.858 110.525 228.807 110.153 228.807C109.483 228.807 108.883 228.975 108.352 229.312C107.826 229.65 107.409 230.144 107.102 230.795C106.799 231.447 106.648 232.242 106.648 233.182C106.648 234.129 106.799 234.928 107.102 235.58C107.409 236.231 107.828 236.723 108.358 237.057C108.888 237.39 109.485 237.557 110.148 237.557C110.515 237.557 110.864 237.508 111.193 237.409C111.527 237.307 111.828 237.157 112.097 236.96C112.366 236.763 112.593 236.523 112.778 236.239C112.968 235.951 113.098 235.621 113.17 235.25L114.943 235.256C114.848 235.828 114.665 236.354 114.392 236.835C114.123 237.312 113.777 237.725 113.352 238.074C112.932 238.419 112.451 238.686 111.909 238.875C111.367 239.064 110.777 239.159 110.136 239.159C109.129 239.159 108.231 238.92 107.443 238.443C106.655 237.962 106.034 237.275 105.58 236.381C105.129 235.487 104.903 234.42 104.903 233.182C104.903 231.939 105.131 230.873 105.585 229.983C106.04 229.089 106.661 228.403 107.449 227.926C108.237 227.445 109.133 227.205 110.136 227.205C110.754 227.205 111.33 227.294 111.864 227.472C112.402 227.646 112.884 227.903 113.312 228.244C113.741 228.581 114.095 228.994 114.375 229.483C114.655 229.968 114.845 230.523 114.943 231.148ZM118.8 227.364V239H117.044V227.364H118.8ZM122.339 239H120.476L124.663 227.364H126.692L130.879 239H129.016L125.726 229.477H125.635L122.339 239ZM122.652 234.443H128.697V235.92H122.652V234.443ZM146.186 227.364V239H144.572L138.658 230.466H138.55V239H136.794V227.364H138.419L144.339 235.909H144.447V227.364H146.186ZM156.23 227.364H157.991V235.017C157.991 235.831 157.8 236.553 157.418 237.182C157.035 237.807 156.497 238.299 155.804 238.659C155.111 239.015 154.298 239.193 153.366 239.193C152.438 239.193 151.628 239.015 150.935 238.659C150.241 238.299 149.704 237.807 149.321 237.182C148.938 236.553 148.747 235.831 148.747 235.017V227.364H150.503V234.875C150.503 235.402 150.618 235.869 150.849 236.278C151.084 236.688 151.416 237.009 151.844 237.244C152.272 237.475 152.779 237.591 153.366 237.591C153.957 237.591 154.467 237.475 154.895 237.244C155.327 237.009 155.656 236.688 155.884 236.278C156.115 235.869 156.23 235.402 156.23 234.875V227.364ZM169.936 227.364V239H168.322L162.408 230.466H162.3V239H160.544V227.364H162.169L168.089 235.909H168.197V227.364H169.936ZM172.497 239V227.364H179.793V228.875H174.253V232.42H179.412V233.926H174.253V237.489H179.861V239H172.497ZM188.484 230.42C188.424 229.883 188.174 229.466 187.734 229.17C187.295 228.871 186.742 228.722 186.075 228.722C185.598 228.722 185.185 228.797 184.837 228.949C184.488 229.097 184.217 229.301 184.024 229.562C183.835 229.82 183.74 230.114 183.74 230.443C183.74 230.72 183.804 230.958 183.933 231.159C184.066 231.36 184.238 231.528 184.45 231.665C184.666 231.797 184.897 231.909 185.143 232C185.39 232.087 185.626 232.159 185.854 232.216L186.99 232.511C187.361 232.602 187.742 232.725 188.132 232.881C188.522 233.036 188.884 233.241 189.217 233.494C189.551 233.748 189.82 234.062 190.024 234.438C190.232 234.812 190.337 235.261 190.337 235.784C190.337 236.443 190.166 237.028 189.825 237.54C189.488 238.051 188.998 238.455 188.354 238.75C187.714 239.045 186.939 239.193 186.03 239.193C185.159 239.193 184.405 239.055 183.768 238.778C183.132 238.502 182.634 238.11 182.274 237.602C181.914 237.091 181.715 236.485 181.678 235.784H183.439C183.473 236.205 183.609 236.555 183.848 236.835C184.09 237.112 184.399 237.318 184.774 237.455C185.153 237.587 185.568 237.653 186.018 237.653C186.515 237.653 186.956 237.576 187.342 237.42C187.732 237.261 188.039 237.042 188.263 236.761C188.486 236.477 188.598 236.146 188.598 235.767C188.598 235.422 188.5 235.14 188.303 234.92C188.109 234.701 187.846 234.519 187.513 234.375C187.183 234.231 186.81 234.104 186.393 233.994L185.018 233.619C184.087 233.366 183.348 232.992 182.803 232.5C182.261 232.008 181.99 231.356 181.99 230.545C181.99 229.875 182.172 229.29 182.536 228.79C182.899 228.29 183.392 227.902 184.013 227.625C184.634 227.345 185.335 227.205 186.115 227.205C186.903 227.205 187.598 227.343 188.2 227.619C188.806 227.896 189.284 228.277 189.632 228.761C189.981 229.242 190.162 229.795 190.178 230.42H188.484Z" fill="#FFD16A"/>
</svg>
